<svg xmlns="http://www.w3.org/2000/svg" viewBox="0 0 1032 296"><title>Eats_Desktop</title><g id="Layer_1" data-name="Layer 1"><rect width="1032" height="296" style="fill:#47b275"/><path d="M513.09,88.26a6.84,6.84,0,0,1-8,5,17.08,17.08,0,0,1-12.6-10.9l-10.7-29.52a29.54,29.54,0,0,0-9-12.7L448.62,20.21,476,13,495.16,27.9a28.79,28.79,0,0,1,10.63,17.49l7.38,39.93A6.74,6.74,0,0,1,513.09,88.26Z" style="fill:#5c3c2e"/><rect x="499.19" y="30.27" width="10.98" height="12.56" style="fill:#5c3c2e"/><polygon points="552.87 49.1 541.89 49.1 531.3 31.02 552.87 36.55 552.87 49.1" style="fill:#5c3c2e"/><path d="M560.3,86.88a7.21,7.21,0,0,1-6.62,6.83,18,18,0,0,1-16-7.29l-33-44s-35.17-26.53-43.25-29.81L518,15.53l20,25.18,21.55,42.55A7.25,7.25,0,0,1,560.3,86.88Z" style="fill:#5c3c2e"/><path d="M604.52,85.93a7.72,7.72,0,0,1-6.31,7.61,19.29,19.29,0,0,1-17.83-6l-29.93-33q-2.12-2.34-4.33-4.55A127.42,127.42,0,0,0,534.8,39.91,128.24,128.24,0,0,0,498,19.6h59.92l3.72,3.17a73.29,73.29,0,0,1,14,16.08l27.64,42.91A7.66,7.66,0,0,1,604.52,85.93Z" style="fill:#5c3c2e"/><path d="M516,43.83h0A69.13,69.13,0,0,1,585.13,113V171.6a0,0,0,0,1,0,0H446.87a0,0,0,0,1,0,0V113A69.13,69.13,0,0,1,516,43.83Z" style="fill:none;stroke:#000;stroke-miterlimit:10;stroke-width:9px"/><path d="M640.14,93.49a22.25,22.25,0,0,1-21.28-4.16l-25-25.12A146,146,0,0,0,490.31,21.1h0a25.78,25.78,0,0,0-23.89,35.48l.29.69a42.59,42.59,0,0,1-1.15,34.59,23.36,23.36,0,0,1-21,13.16,7.23,7.23,0,0,1-7.23-7.1l-.37-20a36.56,36.56,0,0,0-7.46-21.49L386.87,0h170L586.7,17.4a84.84,84.84,0,0,1,18.09,15.72l39.38,46.15A8.91,8.91,0,0,1,640.14,93.49Z" style="fill:#97634e"/><path d="M747.1,170.09l-10.83-28.83h-.08l-5.31-5.3-5.29,5.3h-.16l-5.3-5.3-5.31,5.3h-.15l-5.3-5.3-5.3,5.31h-.14L698.62,136l-5.31,5.31h-.13L687.86,136l-5.31,5.32h-.13L677.11,136l-5.33,5.32h-.11L666.35,136,661,141.29h-.1L655.59,136l-5.33,5.33h-.1L644.84,136l-5.35,5.34h-.08L634.07,136l-5.33,5.34h-.08L623.32,136,618,141.31h-.07L612.56,136l-5.35,5.35h-.05L601.81,136l-5.36,5.36h-.05L591.05,136l-5.36,5.36h0L580.29,136l-5.36,5.37h0L569.54,136l-5.38,5.37h0L558.78,136l-5.38,5.38h0L516,169.94l-37.4-28.68h-.08l-5.31-5.3-5.29,5.3h-.16l-5.3-5.3-5.3,5.3H457l-5.3-5.3-5.29,5.3h-.17L441,136l-5.29,5.3h-.17l-5.3-5.3-5.29,5.3h-.17l-5.29-5.3-5.3,5.3H414l-5.29-5.3-5.3,5.3h-.16l-5.3-5.3-5.3,5.3h-.16l-5.29-5.3-5.31,5.3h-.16l-5.3-5.3-5.29,5.3h-.17l-5.29-5.3-5.29,5.3h-.17l-5.3-5.3-5.29,5.3h-.17l-5.29-5.3-5.3,5.3h-.17l-5.29-5.3-5.29,5.3h-.17l-5.3-5.3-5.29,5.3h-.17l-5.29-5.3-5.3,5.3h-.17l-5.29-5.3-5.3,5.3h-.08L284.9,170.09a143.67,143.67,0,0,0-9.17,50.49V296H756.27V220.58A143.67,143.67,0,0,0,747.1,170.09Z" style="fill:#fff"/><path d="M711.39,155.39v1.83a2.59,2.59,0,0,1-2.59,2.59h-16a2.59,2.59,0,0,1-2.6-2.59v-1.83h3v1a.87.87,0,0,0,.87.87h13.42a.87.87,0,0,0,.87-.87v-1Z" style="fill:#c6dafd"/><path d="M595.72,155.39v1.83a2.59,2.59,0,0,1-2.59,2.59h-16a2.59,2.59,0,0,1-2.6-2.59v-1.83h3v1a.87.87,0,0,0,.87.87h13.42a.87.87,0,0,0,.87-.87v-1Z" style="fill:#c6dafd"/><path d="M457.44,155.39v1.83a2.59,2.59,0,0,1-2.59,2.59h-16a2.59,2.59,0,0,1-2.6-2.59v-1.83h3v1a.87.87,0,0,0,.87.87h13.42a.87.87,0,0,0,.87-.87v-1Z" style="fill:#c6dafd"/><path d="M341.77,155.39v1.83a2.59,2.59,0,0,1-2.59,2.59h-16a2.59,2.59,0,0,1-2.6-2.59v-1.83h3v1a.87.87,0,0,0,.87.87H337.9a.87.87,0,0,0,.87-.87v-1Z" style="fill:#c6dafd"/><path d="M792.64,296H500.07c-8.23-5.93-4.37-18.47,10.38-19.17,19.36-.93,87-4.57,95.4-5s8.3-8.1,1.26-8.65-66.8-4.4-85.8-5.33-18.55-21.3.29-22.1c16.16-.68,94.1-2.17,115.95-2.57a45.78,45.78,0,0,0,11.22-1.61h0a5.72,5.72,0,0,0,.41-10.89l-16.42-5.92-2.57-.83A32.23,32.23,0,0,1,608,183.26h0a8,8,0,0,1,12.66-6.51l12.82,9.16a47.12,47.12,0,0,0,13.83,6.37l36.26,10a50.2,50.2,0,0,1,18.11,9.27l32.46,26.09a.83.83,0,0,0,.16.12,44.23,44.23,0,0,0,28.62,9.62h4.81Z" style="fill:#f4b2a2"/><path d="M1032,296H766.78a39.81,39.81,0,0,1-10.51-26.95V247.24l29.48-.16A25.68,25.68,0,0,0,797.63,244l23.49-12.69A144.92,144.92,0,0,1,888.68,214l143.32-.61Z" style="fill:#c9dafd"/><polygon points="553.4 141.26 553.4 203.9 548.06 209.24 542.72 203.9 537.37 209.24 532.03 203.9 526.69 209.24 521.34 203.9 516 209.24 510.66 203.9 505.31 209.24 499.97 203.9 494.63 209.24 489.28 203.9 483.94 209.24 478.6 203.9 478.6 141.26 553.4 141.26" style="fill:#276ef1"/></g></svg>